<svg width="1467" height="202" viewBox="0 0 1467 202" fill="none" xmlns="http://www.w3.org/2000/svg">
<path d="M73.1875 45.9062H46.625V98.0938H73.8125C93.8125 98.0938 103.969 89.3438 103.969 71.8438C103.969 63.0938 101.469 56.5312 96.4688 52.3125C91.4688 48.0938 83.6562 45.9062 73.1875 45.9062ZM78.9688 139.031H46.625V197H0.53125V4.96875H77.4062C127.094 4.96875 151.938 27.3125 151.938 71.8438C151.938 91.2188 145.375 107.312 132.406 119.969C119.438 132.781 101.625 139.031 78.9688 139.031ZM257.469 201.531C242.156 201.531 228.094 199.031 215.594 193.875C203.094 188.875 192.625 181.844 184.344 172.781C175.906 163.719 169.5 153.094 164.969 140.75C160.438 128.406 158.25 114.969 158.25 100.438C158.25 81.2188 162.156 64.0312 170.281 49.0312C178.406 34.0312 189.969 22.1562 205.125 13.5625C220.125 4.96875 237.625 0.59375 257.469 0.59375C277.312 0.59375 294.812 4.96875 309.812 13.5625C324.812 22.1562 336.375 34.0312 344.344 49.0312C352.312 64.0312 356.375 81.2188 356.375 100.438C356.375 119.812 352.469 137.156 344.812 152.312C337 167.625 325.594 179.656 310.594 188.406C295.438 197.156 277.781 201.531 257.469 201.531ZM257.469 160.125C274.656 160.125 287.938 154.812 297 144.031C306.062 133.25 310.594 118.562 310.594 99.9688C310.594 83.4062 305.906 69.5 296.688 58.5625C287.312 47.625 274.344 42.1562 257.469 42.1562C240.594 42.1562 227.469 47.625 218.25 58.5625C208.875 69.5 204.344 83.4062 204.344 99.9688C204.344 118.562 208.875 133.25 217.938 144.031C227 154.812 240.125 160.125 257.469 160.125ZM454.25 45.9062H416.125V88.25H453.625C472.375 88.25 481.75 81.0625 481.75 66.375C481.75 52.7812 472.531 45.9062 454.25 45.9062ZM485.656 197L442.062 126.219H416.125V197H370.031V4.96875H455.812C479.25 4.96875 496.906 10.125 509.094 20.2812C521.125 30.5938 527.219 45.4375 527.219 65.125C527.219 79.6562 523.781 91.6875 517.062 101.062C510.344 110.594 500.656 117.469 488.156 121.531L540.031 196.375V197H485.656ZM540.562 48.5625V4.96875H697.125V48.5625H641.969V197H595.875V48.5625H540.562ZM839.844 134.031H755V197H708.906V4.96875H847.812V48.5625H755V90.4375H839.844V134.031ZM953.969 201.531C938.656 201.531 924.594 199.031 912.094 193.875C899.594 188.875 889.125 181.844 880.844 172.781C872.406 163.719 866 153.094 861.469 140.75C856.938 128.406 854.75 114.969 854.75 100.438C854.75 81.2188 858.656 64.0312 866.781 49.0312C874.906 34.0312 886.469 22.1562 901.625 13.5625C916.625 4.96875 934.125 0.59375 953.969 0.59375C973.812 0.59375 991.312 4.96875 1006.31 13.5625C1021.31 22.1562 1032.88 34.0312 1040.84 49.0312C1048.81 64.0312 1052.88 81.2188 1052.88 100.438C1052.88 119.812 1048.97 137.156 1041.31 152.312C1033.5 167.625 1022.09 179.656 1007.09 188.406C991.938 197.156 974.281 201.531 953.969 201.531ZM953.969 160.125C971.156 160.125 984.438 154.812 993.5 144.031C1002.56 133.25 1007.09 118.562 1007.09 99.9688C1007.09 83.4062 1002.41 69.5 993.188 58.5625C983.812 47.625 970.844 42.1562 953.969 42.1562C937.094 42.1562 923.969 47.625 914.75 58.5625C905.375 69.5 900.844 83.4062 900.844 99.9688C900.844 118.562 905.375 133.25 914.438 144.031C923.5 154.812 936.625 160.125 953.969 160.125ZM1112.62 4.96875V153.406H1195.28V197H1066.53V4.96875H1112.62ZM1254.56 197H1208.47V4.96875H1254.56V197ZM1367.59 201.531C1352.28 201.531 1338.22 199.031 1325.72 193.875C1313.22 188.875 1302.75 181.844 1294.47 172.781C1286.03 163.719 1279.62 153.094 1275.09 140.75C1270.56 128.406 1268.38 114.969 1268.38 100.438C1268.38 81.2188 1272.28 64.0312 1280.41 49.0312C1288.53 34.0312 1300.09 22.1562 1315.25 13.5625C1330.25 4.96875 1347.75 0.59375 1367.59 0.59375C1387.44 0.59375 1404.94 4.96875 1419.94 13.5625C1434.94 22.1562 1446.5 34.0312 1454.47 49.0312C1462.44 64.0312 1466.5 81.2188 1466.5 100.438C1466.5 119.812 1462.59 137.156 1454.94 152.312C1447.12 167.625 1435.72 179.656 1420.72 188.406C1405.56 197.156 1387.91 201.531 1367.59 201.531ZM1367.59 160.125C1384.78 160.125 1398.06 154.812 1407.12 144.031C1416.19 133.25 1420.72 118.562 1420.72 99.9688C1420.72 83.4062 1416.03 69.5 1406.81 58.5625C1397.44 47.625 1384.47 42.1562 1367.59 42.1562C1350.72 42.1562 1337.59 47.625 1328.38 58.5625C1319 69.5 1314.47 83.4062 1314.47 99.9688C1314.47 118.562 1319 133.25 1328.06 144.031C1337.12 154.812 1350.25 160.125 1367.59 160.125Z" fill="black"/>
</svg>
