<svg width="1419" height="342" viewBox="0 0 1419 342" fill="none" xmlns="http://www.w3.org/2000/svg">
<path d="M1418.23 171.261C1418.23 194.531 1398.63 216.852 1362.77 237.259C1326.96 257.645 1275.1 276.02 1210.98 291.457C1082.74 322.331 905.559 341.431 709.829 341.431C514.099 341.431 336.915 322.331 208.678 291.457C144.555 276.02 92.6989 257.645 56.8852 237.259C21.0323 216.852 1.42893 194.531 1.42893 171.261C1.42893 147.992 21.0323 125.671 56.8852 105.264C92.6989 84.8781 144.555 66.5033 208.678 51.0656C336.915 20.1921 514.099 1.09143 709.829 1.09143C905.559 1.09143 1082.74 20.1921 1210.98 51.0656C1275.1 66.5033 1326.96 84.8781 1362.77 105.264C1398.63 125.671 1418.23 147.992 1418.23 171.261Z" stroke="black"/>
</svg>
